<svg width="36" height="34" viewBox="0 0 36 34" fill="none" xmlns="http://www.w3.org/2000/svg">
<path d="M29.759 22.0289L21.7154 7.47363C20.0985 4.54787 15.8927 4.54783 14.2758 7.47363L6.23214 22.0289C4.66676 24.8615 6.71557 28.3345 9.95192 28.3345H26.0393C29.2756 28.3345 31.3244 24.8614 29.759 22.0289Z" stroke="#F86F6E" stroke-opacity="0.64" stroke-width="2" stroke-linecap="round" stroke-linejoin="round"/>
<path d="M33.2628 20.0941L25.2191 5.53889C22.0805 -0.140511 13.9163 -0.140622 10.7776 5.53889L2.73397 20.0941C-0.30472 25.5927 3.6724 32.3345 9.95471 32.3345H26.0421C32.3244 32.3345 36.3015 25.5927 33.2628 20.0941Z" stroke="#F86F6E" stroke-opacity="0.16" stroke-width="2" stroke-linecap="round" stroke-linejoin="round"/>
<path fill-rule="evenodd" clip-rule="evenodd" d="M20.2101 9.7602C19.2678 8.00253 16.7478 8.00162 15.8042 9.75861L9.41817 21.6502C8.52376 23.3157 9.7302 25.333 11.6207 25.333H24.3818C26.2715 25.333 27.478 23.3172 26.5851 21.6518L20.2101 9.7602ZM18.8332 14.4993C18.8332 14.0391 18.4601 13.666 17.9998 13.666C17.5396 13.666 17.1665 14.0391 17.1665 14.4993V17.8327C17.1665 18.2929 17.5396 18.666 17.9998 18.666C18.4601 18.666 18.8332 18.2929 18.8332 17.8327V14.4993ZM17.9998 20.3327C17.5396 20.3327 17.1665 20.7058 17.1665 21.166C17.1665 21.6263 17.5396 21.9993 17.9998 21.9993H18.0082C18.4684 21.9993 18.8415 21.6263 18.8415 21.166C18.8415 20.7058 18.4684 20.3327 18.0082 20.3327H17.9998Z" fill="#EB4143"/>
</svg>
