<svg width="16" height="16" viewBox="0 0 16 16" fill="none" xmlns="http://www.w3.org/2000/svg">
<path d="M3.43524 8.8844L8.03024 4.2884C8.4522 3.86644 9.0245 3.62939 9.62124 3.62939C10.218 3.62939 10.7903 3.86644 11.2122 4.2884C11.6342 4.71036 11.8713 5.28266 11.8713 5.8794C11.8713 6.47614 11.6342 7.04844 11.2122 7.4704L5.91024 12.7734C5.84108 12.8451 5.75835 12.9022 5.66687 12.9416C5.57539 12.9809 5.47698 13.0017 5.3774 13.0026C5.27781 13.0035 5.17904 12.9846 5.08686 12.9469C4.99467 12.9092 4.9109 12.8536 4.84045 12.7832C4.77 12.7128 4.71427 12.6291 4.67651 12.5369C4.63876 12.4448 4.61974 12.346 4.62055 12.2465C4.62137 12.1469 4.64201 12.0484 4.68128 11.9569C4.72054 11.8654 4.77764 11.7826 4.84924 11.7134L10.1522 6.4094C10.2847 6.26723 10.3568 6.07918 10.3534 5.88488C10.35 5.69058 10.2713 5.50519 10.1339 5.36778C9.99645 5.23037 9.81106 5.15165 9.61676 5.14823C9.42246 5.1448 9.23441 5.21692 9.09224 5.3494L3.78824 10.6524C3.36628 11.0744 3.12922 11.6467 3.12922 12.2434C3.12922 12.8401 3.36628 13.4124 3.78824 13.8344C4.2102 14.2564 4.7825 14.4934 5.37924 14.4934C5.97598 14.4934 6.54828 14.2564 6.97024 13.8344L12.2742 8.5314C12.9776 7.82805 13.3727 6.87409 13.3727 5.8794C13.3727 4.88471 12.9776 3.93075 12.2742 3.2274C11.5709 2.52405 10.6169 2.12891 9.62224 2.12891C8.62754 2.12891 7.67359 2.52405 6.97024 3.2274L2.37424 7.8234C2.30257 7.89255 2.2454 7.97528 2.20605 8.06677C2.1667 8.15825 2.14596 8.25666 2.14505 8.35624C2.14414 8.45582 2.16307 8.55459 2.20074 8.64678C2.2384 8.73897 2.29405 8.82274 2.36444 8.89319C2.43483 8.96364 2.51854 9.01937 2.61069 9.05713C2.70285 9.09488 2.8016 9.1139 2.90118 9.11308C3.00077 9.11227 3.09919 9.09162 3.19071 9.05236C3.28223 9.0131 3.36502 8.956 3.43424 8.8844H3.43524Z" fill="#707070"/>
</svg>
