<svg width="19" height="20" viewBox="0 0 19 20" fill="none" xmlns="http://www.w3.org/2000/svg">
<path d="M18.8113 6.96684C18.8113 6.56371 18.6654 6.17709 18.4057 5.89203C18.1461 5.60698 17.7939 5.44684 17.4267 5.44684H14.6574V2.40684C14.6574 2.00371 14.5116 1.61709 14.2519 1.33204C13.9922 1.04698 13.64 0.886841 13.2728 0.886841H2.1959C1.82867 0.886841 1.47649 1.04698 1.21683 1.33204C0.957161 1.61709 0.811282 2.00371 0.811282 2.40684V14.5668C0.810913 14.7107 0.848242 14.8517 0.918821 14.973C0.989399 15.0943 1.09025 15.1907 1.20936 15.2508C1.30123 15.2993 1.40165 15.3253 1.50359 15.3268C1.66174 15.328 1.81511 15.2674 1.93628 15.1558L4.96513 12.4768V15.3268C4.96513 15.73 5.11101 16.1166 5.37067 16.4016C5.63034 16.6867 5.98252 16.8468 6.34974 16.8468H14.4497L17.6863 19.7158C17.8075 19.8274 17.9608 19.888 18.119 19.8868C18.2237 19.8855 18.327 19.8595 18.4219 19.8108C18.5387 19.7484 18.6372 19.6512 18.706 19.5302C18.7749 19.4093 18.8114 19.2695 18.8113 19.1268V6.96684ZM15.1334 15.4978C15.0092 15.3856 14.8529 15.325 14.692 15.3268H6.34974V12.2868H13.2728C13.64 12.2868 13.9922 12.1267 14.2519 11.8416C14.5116 11.5566 14.6574 11.17 14.6574 10.7668V6.96684H17.4267V17.5308L15.1334 15.4978Z" fill="#BDBDBD"/>
</svg>
