<svg width="20" height="21" viewBox="0 0 20 21" fill="none" xmlns="http://www.w3.org/2000/svg">
<path d="M11.5787 0.582805C11.138 0.208152 10.5784 0.00244141 10 0.00244141C9.42156 0.00244141 8.86197 0.208152 8.42125 0.582805L1.10875 6.79806C0.839592 7.02687 0.623387 7.31145 0.475108 7.63209C0.326829 7.95274 0.25002 8.30178 0.25 8.65506V18.3751C0.25 18.8723 0.447544 19.3492 0.799175 19.7009C1.15081 20.0525 1.62772 20.2501 2.125 20.2501H5.875C6.37228 20.2501 6.84919 20.0525 7.20083 19.7009C7.55246 19.3492 7.75 18.8723 7.75 18.3751V13.1251C7.75 13.0256 7.78951 12.9302 7.85983 12.8599C7.93016 12.7896 8.02554 12.7501 8.125 12.7501H11.5C11.5995 12.7501 11.6948 12.7896 11.7652 12.8599C11.8355 12.9302 11.875 13.0256 11.875 13.1251V18.3751C11.875 18.8723 12.0725 19.3492 12.4242 19.7009C12.7758 20.0525 13.2527 20.2501 13.75 20.2501H17.875C18.3723 20.2501 18.8492 20.0525 19.2008 19.7009C19.5525 19.3492 19.75 18.8723 19.75 18.3751V8.65506C19.75 8.30178 19.6732 7.95274 19.5249 7.63209C19.3766 7.31145 19.1604 7.02687 18.8913 6.79806L11.5787 0.582805Z" fill="#016CBB"/>
</svg>
