<svg width="22" height="20" viewBox="0 0 22 20" fill="none" xmlns="http://www.w3.org/2000/svg">
<path fill-rule="evenodd" clip-rule="evenodd" d="M6.00005 20C4.3432 20 3.00005 18.6569 3.00005 17V11H2.00005C1.10915 11 0.66298 9.92286 1.29294 9.29289L10.2929 0.292893C10.6835 -0.0976311 11.3166 -0.0976311 11.7072 0.292893L20.7072 9.29289C21.3371 9.92286 20.891 11 20.0001 11H19.0001V17C19.0001 18.6569 17.6569 20 16.0001 20H6.00005ZM11.0001 2.41421L4.35096 9.0633C4.73015 9.20542 5.00005 9.57119 5.00005 10V17C5.00005 17.5523 5.44777 18 6.00005 18L8.00005 17.999L8.00005 14C8.00005 12.8954 8.89548 12 10.0001 12H12.0001C13.1046 12 14.0001 12.8954 14.0001 14L14 17.999L16.0001 18C16.5523 18 17.0001 17.5523 17.0001 17V10C17.0001 9.57119 17.27 9.20542 17.6491 9.0633L11.0001 2.41421ZM12 14H10V17.999H12V14Z" fill="black"/>
</svg>
