<svg width="17" height="18" viewBox="0 0 17 18" fill="none" xmlns="http://www.w3.org/2000/svg">
<path d="M15.5833 14.7874V9.24399C15.5833 8.85832 15.5046 8.4767 15.352 8.12251C15.1994 7.76832 14.9761 7.44901 14.6958 7.18415L9.47321 2.24849C9.21018 1.99981 8.86193 1.86125 8.49996 1.86125C8.13799 1.86125 7.78974 1.99981 7.52671 2.24849L2.30417 7.18415C2.02383 7.44901 1.80051 7.76832 1.6479 8.12251C1.49528 8.4767 1.41658 8.85832 1.41663 9.24399V14.7874C1.41663 15.1631 1.56588 15.5235 1.83156 15.7891C2.09723 16.0548 2.45757 16.2041 2.83329 16.2041H14.1666C14.5424 16.2041 14.9027 16.0548 15.1684 15.7891C15.434 15.5235 15.5833 15.1631 15.5833 14.7874Z" stroke="#FE8282" stroke-width="1.88506" stroke-linecap="round" stroke-linejoin="round"/>
</svg>
