<svg width="26" height="24" viewBox="0 0 26 24" fill="none" xmlns="http://www.w3.org/2000/svg">
<path d="M8.60548 1.36351C9.09537 1.06052 9.65999 0.900019 10.236 0.9H15.764C16.34 0.900019 16.9046 1.06052 17.3945 1.36351C17.8844 1.66648 18.2802 2.09994 18.5374 2.61528L8.60548 1.36351ZM8.60548 1.36351C8.11561 1.66648 7.71984 2.09994 7.46256 2.61528L8.60548 1.36351ZM18.0166 6.49272L18.0166 6.4928C18.108 6.67528 18.2485 6.82873 18.4221 6.93596C18.5958 7.04319 18.7959 7.09999 19 7.1H21C21.5039 7.1 21.9872 7.30018 22.3435 7.6565C22.6998 8.01282 22.9 8.49609 22.9 9V19C22.9 19.5039 22.6998 19.9872 22.3435 20.3435C21.9872 20.6998 21.5039 20.9 21 20.9H5C4.49609 20.9 4.01282 20.6998 3.6565 20.3435C3.30018 19.9872 3.1 19.5039 3.1 19V9C3.1 8.49609 3.30018 8.01282 3.6565 7.6565C4.01282 7.30018 4.49609 7.1 5 7.1H7C7.20412 7.09999 7.4042 7.04319 7.57788 6.93596C7.75155 6.82873 7.89196 6.67528 7.9834 6.4928L7.98344 6.49272L9.4314 3.5968C9.50622 3.4475 9.6211 3.32195 9.7632 3.23421C9.9053 3.14648 10.069 3.10001 10.236 3.1H15.764C15.931 3.10001 16.0947 3.14648 16.2368 3.23421C16.3789 3.32195 16.4938 3.4475 16.5686 3.5968L18.0166 6.49272ZM17.3134 17.3134C18.4573 16.1694 19.1 14.6178 19.1 13C19.1 11.3822 18.4573 9.83062 17.3134 8.68665C16.1694 7.54268 14.6178 6.9 13 6.9C11.3822 6.9 9.83062 7.54268 8.68665 8.68665C7.54268 9.83062 6.9 11.3822 6.9 13C6.9 14.6178 7.54268 16.1694 8.68665 17.3134C9.83062 18.4573 11.3822 19.1 13 19.1C14.6178 19.1 16.1694 18.4573 17.3134 17.3134ZM15.7577 10.2423C16.4891 10.9737 16.9 11.9657 16.9 13C16.9 14.0343 16.4891 15.0263 15.7577 15.7577C15.0263 16.4891 14.0343 16.9 13 16.9C11.9657 16.9 10.9737 16.4891 10.2423 15.7577C9.51089 15.0263 9.1 14.0343 9.1 13C9.1 11.9657 9.51089 10.9737 10.2423 10.2423C10.9737 9.51089 11.9657 9.1 13 9.1C14.0343 9.1 15.0263 9.51089 15.7577 10.2423ZM19.6798 4.9L18.5375 2.61533H7.46253L6.3202 4.9H5C3.91261 4.9 2.86976 5.33196 2.10086 6.10086C1.33196 6.86976 0.9 7.91261 0.9 9V19C0.9 20.0874 1.33196 21.1302 2.10086 21.8991C2.86976 22.668 3.91261 23.1 5 23.1H21C22.0874 23.1 23.1302 22.668 23.8991 21.8991C24.668 21.1302 25.1 20.0874 25.1 19V9C25.1 7.91261 24.668 6.86976 23.8991 6.10086C23.1302 5.33196 22.0874 4.9 21 4.9H19.6798Z" fill="#016CBB" stroke="#016CBB" stroke-width="0.2"/>
</svg>
