<svg width="24" height="23" viewBox="0 0 24 23" fill="none" xmlns="http://www.w3.org/2000/svg">
<path d="M9.16559 7.06746L9.167 6.01553C9.16775 5.31148 9.4657 4.6365 9.99537 4.13891C10.5251 3.64132 11.2431 3.36182 11.9918 3.36182C13.5483 3.36182 14.8096 4.54789 14.8096 6.01155V7.0648C17.0843 7.70228 19.0393 9.08768 20.3179 10.9681C21.5965 12.8486 22.1134 15.0987 21.7742 17.3078H2.20239C1.8638 15.0995 2.38064 12.8503 3.65862 10.9704C4.93661 9.09061 6.89059 7.7054 9.16418 7.06746H9.16559ZM2.80832 18.636H21.1697C21.357 18.636 21.5366 18.7059 21.6691 18.8305C21.8015 18.955 21.8759 19.1239 21.8759 19.3001C21.8759 19.4762 21.8015 19.6451 21.6691 19.7696C21.5366 19.8942 21.357 19.9642 21.1697 19.9642H2.80832C2.62102 19.9642 2.44139 19.8942 2.30895 19.7696C2.17651 19.6451 2.10211 19.4762 2.10211 19.3001C2.10211 19.1239 2.17651 18.955 2.30895 18.8305C2.44139 18.7059 2.62102 18.636 2.80832 18.636ZM3.51452 15.9796H20.4635C20.4635 14.9331 20.2443 13.8968 19.8184 12.9299C19.3925 11.9631 18.7683 11.0846 17.9814 10.3446C17.1944 9.60457 16.2602 9.01757 15.232 8.61708C14.2039 8.2166 13.1019 8.01047 11.989 8.01047C10.8761 8.01047 9.77413 8.2166 8.74596 8.61708C7.71779 9.01757 6.78357 9.60457 5.99664 10.3446C5.20971 11.0846 4.58549 11.9631 4.1596 12.9299C3.73372 13.8968 3.51452 14.9331 3.51452 15.9796ZM13.3972 6.68228V6.01155C13.3972 5.66105 13.2491 5.32491 12.9856 5.07708C12.722 4.82924 12.3646 4.69 11.9918 4.69C11.6175 4.69 11.2584 4.82975 10.9936 5.07855C10.7288 5.32735 10.5798 5.66484 10.5794 6.01686V6.68228H13.3972Z" fill="white"/>
</svg>
