<svg width="15" height="16" viewBox="0 0 15 16" fill="none" xmlns="http://www.w3.org/2000/svg">
<path d="M6.49167 11.575C6.81667 11.9 7.34167 11.9 7.66667 11.575L10.6583 8.58333C10.7356 8.50624 10.7969 8.41466 10.8387 8.31385C10.8805 8.21304 10.902 8.10497 10.902 7.99583C10.902 7.88669 10.8805 7.77862 10.8387 7.67781C10.7969 7.577 10.7356 7.48543 10.6583 7.40833L7.66667 4.41667C7.51085 4.26085 7.29952 4.17332 7.07917 4.17332C6.85881 4.17332 6.64748 4.26085 6.49167 4.41667C6.33585 4.57248 6.24832 4.78381 6.24832 5.00417C6.24832 5.22452 6.33585 5.43585 6.49167 5.59167L8.05833 7.16667H0.833333C0.375 7.16667 0 7.54167 0 8C0 8.45833 0.375 8.83333 0.833333 8.83333H8.05833L6.49167 10.4C6.16667 10.725 6.175 11.2583 6.49167 11.575ZM13.3333 0.5H1.66667C1.22464 0.5 0.800716 0.675595 0.488155 0.988155C0.175595 1.30072 0 1.72464 0 2.16667V4.66667C0 5.125 0.375 5.5 0.833333 5.5C1.29167 5.5 1.66667 5.125 1.66667 4.66667V3C1.66667 2.54167 2.04167 2.16667 2.5 2.16667H12.5C12.9583 2.16667 13.3333 2.54167 13.3333 3V13C13.3333 13.4583 12.9583 13.8333 12.5 13.8333H2.5C2.04167 13.8333 1.66667 13.4583 1.66667 13V11.3333C1.66667 10.875 1.29167 10.5 0.833333 10.5C0.375 10.5 0 10.875 0 11.3333V13.8333C0 14.75 0.75 15.5 1.66667 15.5H13.3333C14.25 15.5 15 14.75 15 13.8333V2.16667C15 1.25 14.25 0.5 13.3333 0.5Z" fill="#DD1903"/>
</svg>
