<svg width="21" height="15" viewBox="0 0 21 15" fill="none" xmlns="http://www.w3.org/2000/svg">
<path d="M18.9825 0.126991H2.01751C1.64256 0.126991 1.28297 0.275939 1.01784 0.541069C0.752708 0.806199 0.60376 1.16579 0.60376 1.54074V12.8507C0.60376 13.2257 0.752708 13.5853 1.01784 13.8504C1.28297 14.1155 1.64256 14.2645 2.01751 14.2645H18.9825C19.3575 14.2645 19.7171 14.1155 19.9822 13.8504C20.2473 13.5853 20.3963 13.2257 20.3963 12.8507V1.54074C20.3963 1.16579 20.2473 0.806199 19.9822 0.541069C19.7171 0.275939 19.3575 0.126991 18.9825 0.126991ZM17.4274 1.54074L10.5 6.33335L3.57263 1.54074H17.4274ZM2.01751 12.8507V2.184L10.0971 7.77538C10.2154 7.85747 10.356 7.90145 10.5 7.90145C10.644 7.90145 10.7846 7.85747 10.9029 7.77538L18.9825 2.184V12.8507H2.01751Z" fill="#FE8282"/>
</svg>
