<svg id="Layer_1" data-name="Layer 1" xmlns="http://www.w3.org/2000/svg" viewBox="0 0 115.09 122.88"><title>nigeria-naira</title><path d="M13.42,0H32.1a1.25,1.25,0,0,1,1,.6L58,42.26H83.17v-41A1.23,1.23,0,0,1,84.39,0h17.28a1.23,1.23,0,0,1,1.23,1.23v41h11a1.23,1.23,0,0,1,1.23,1.23V54.55a1.23,1.23,0,0,1-1.23,1.23h-11v9.41h11a1.23,1.23,0,0,1,1.23,1.22V77.48a1.23,1.23,0,0,1-1.23,1.22h-11v43a1.23,1.23,0,0,1-1.23,1.23H84.39a1.25,1.25,0,0,1-1-.6L58,78.7H33.26v43A1.23,1.23,0,0,1,32,122.88H13.42a1.23,1.23,0,0,1-1.23-1.23V78.7h-11A1.23,1.23,0,0,1,0,77.48V66.41a1.23,1.23,0,0,1,1.23-1.22h11V55.78h-11A1.23,1.23,0,0,1,0,54.55V43.49a1.23,1.23,0,0,1,1.23-1.23h11v-41A1.23,1.23,0,0,1,13.42,0ZM33.26,55.78v9.41h17l-4.4-9.41ZM70,65.19H83.17V55.78H65.68L70,65.19ZM83.17,78.7H77.88l5.29,11v-11ZM33.26,32.76v9.5h4.57l-4.57-9.5Z"/></svg>