<svg width="21" height="17" viewBox="0 0 21 17" fill="none" xmlns="http://www.w3.org/2000/svg">
<path d="M7.66553 4.0677L7.66694 3.01577C7.66769 2.31172 7.96564 1.63674 8.49531 1.13915C9.02499 0.641555 9.74307 0.362053 10.4918 0.362053C12.0483 0.362053 13.3095 1.54812 13.3095 3.01179V4.06504C15.5842 4.70252 17.5392 6.08792 18.8178 7.96837C20.0964 9.84883 20.6133 12.0989 20.2741 14.308H0.70233C0.363744 12.0997 0.880577 9.85051 2.15856 7.97068C3.43655 6.09085 5.39053 4.70564 7.66412 4.0677H7.66553ZM1.30826 15.6362H19.6696C19.8569 15.6362 20.0366 15.7062 20.169 15.8307C20.3014 15.9553 20.3758 16.1242 20.3758 16.3003C20.3758 16.4764 20.3014 16.6453 20.169 16.7699C20.0366 16.8944 19.8569 16.9644 19.6696 16.9644H1.30826C1.12096 16.9644 0.941331 16.8944 0.808892 16.7699C0.676452 16.6453 0.602048 16.4764 0.602048 16.3003C0.602048 16.1242 0.676452 15.9553 0.808892 15.8307C0.941331 15.7062 1.12096 15.6362 1.30826 15.6362ZM2.01446 12.9798H18.9634C18.9634 11.9333 18.7442 10.897 18.3183 9.93018C17.8925 8.96332 17.2682 8.08481 16.4813 7.34481C15.6944 6.60481 14.7602 6.01781 13.732 5.61732C12.7038 5.21684 11.6018 5.01071 10.4889 5.01071C9.37606 5.01071 8.27407 5.21684 7.2459 5.61732C6.21773 6.01781 5.28351 6.60481 4.49658 7.34481C3.70965 8.08481 3.08543 8.96332 2.65954 9.93018C2.23366 10.897 2.01446 11.9333 2.01446 12.9798ZM11.8971 3.68252V3.01179C11.8971 2.66129 11.7491 2.32515 11.4855 2.07731C11.2219 1.82947 10.8645 1.69024 10.4918 1.69024C10.1174 1.69024 9.75838 1.82999 9.49354 2.07879C9.2287 2.32758 9.07973 2.66507 9.07936 3.0171V3.68252H11.8971Z" fill="#FE8282"/>
</svg>
