<svg width="18" height="19" viewBox="0 0 18 19" fill="none" xmlns="http://www.w3.org/2000/svg">
<path d="M8.99983 0.770744C8.06779 0.770744 7.15668 1.04713 6.38171 1.56494C5.60674 2.08276 5.00273 2.81875 4.64605 3.67985C4.28937 4.54095 4.19605 5.48847 4.37788 6.40261C4.55972 7.31674 5.00854 8.15643 5.66759 8.81549C6.32665 9.47454 7.16634 9.92336 8.08047 10.1052C8.99461 10.287 9.94213 10.1937 10.8032 9.83703C11.6643 9.48035 12.4003 8.87634 12.9181 8.10137C13.436 7.3264 13.7123 6.41529 13.7123 5.48324C13.7123 4.23341 13.2158 3.03477 12.3321 2.151C11.4483 1.26724 10.2497 0.770744 8.99983 0.770744ZM8.99983 8.31074C8.44061 8.31074 7.89394 8.14491 7.42896 7.83422C6.96398 7.52354 6.60157 7.08194 6.38756 6.56528C6.17356 6.04862 6.11756 5.48011 6.22666 4.93163C6.33576 4.38315 6.60506 3.87933 7.00049 3.4839C7.39592 3.08847 7.89973 2.81917 8.44822 2.71007C8.9967 2.60097 9.56521 2.65697 10.0819 2.87098C10.5985 3.08498 11.0401 3.44739 11.3508 3.91237C11.6615 4.37735 11.8273 4.92402 11.8273 5.48324C11.8273 6.23314 11.5294 6.95233 10.9992 7.48259C10.4689 8.01285 9.74973 8.31074 8.99983 8.31074ZM17.4823 18.6782V17.7357C17.4823 15.986 16.7872 14.3079 15.55 13.0706C14.3127 11.8333 12.6346 11.1382 10.8848 11.1382H7.11483C5.36507 11.1382 3.68697 11.8333 2.4497 13.0706C1.21243 14.3079 0.517334 15.986 0.517334 17.7357V18.6782H2.40233V17.7357C2.40233 16.4859 2.89883 15.2873 3.78259 14.4035C4.66636 13.5197 5.865 13.0232 7.11483 13.0232H10.8848C12.1347 13.0232 13.3333 13.5197 14.2171 14.4035C15.1008 15.2873 15.5973 16.4859 15.5973 17.7357V18.6782H17.4823Z" fill="#FE8282"/>
</svg>
